<svg width="191" height="78" viewBox="0 0 191 78" fill="none" xmlns="http://www.w3.org/2000/svg">
<path d="M116.51 41.7268L123.249 55.2213H133.703V23.5627H123.711V36.7404C123.71 36.9389 123.641 37.1311 123.516 37.2862C123.392 37.4413 123.218 37.5504 123.024 37.5959C122.83 37.6414 122.626 37.6207 122.445 37.5372C122.263 37.4537 122.116 37.3122 122.025 37.1353L115.267 23.5627H104.772V55.2213H114.81V42.1171C114.808 41.9179 114.875 41.7241 114.999 41.5679C115.124 41.4117 115.298 41.3025 115.494 41.2585C115.691 41.2038 115.902 41.2209 116.088 41.3067C116.275 41.3925 116.424 41.5414 116.51 41.7268Z" fill="#FF153C"/>
<path d="M100.278 23.5627H89.3022V55.2213H100.278V23.5627Z" fill="#FF153C"/>
<path d="M136.936 36.396V42.2318C136.936 47.9069 139.089 52.0118 143.338 54.4269C150.115 58.2792 159.866 55.9008 164.125 52.7602V38.026H154.212V47.2917L154.023 47.3651C153.071 47.7325 150.822 48.1319 149.154 46.9932C147.87 46.1208 147.214 44.5551 147.214 42.3374V35.8129C147.214 33.7604 148.138 32.4335 149.87 31.9835C151.718 31.5244 153.505 32.5299 154.24 34.44L163.843 29.3296C160.804 24.0677 155.838 22.75 151.635 22.75C150.988 22.75 150.36 22.7821 149.754 22.8326C146.202 23.1495 143.288 24.2927 140.913 26.3314C138.391 28.4848 136.936 32.1534 136.936 36.396Z" fill="#FF153C"/>
<path d="M53.2398 23.5627H26V32.8284H34.1992V55.2213H45.036V32.8284H53.2398V23.5627Z" fill="#FF153C"/>
<path d="M75.7263 23.5627L68.8621 44.748C68.8018 44.9504 68.6686 45.1236 68.4879 45.2345C68.3073 45.3455 68.0919 45.3864 67.8828 45.3495C67.6719 45.3204 67.4789 45.2157 67.3402 45.055C67.2015 44.8943 67.1267 44.6888 67.1299 44.4771V23.5581H56.7319V55.2396H76.41L87.1774 23.5811L75.7263 23.5627Z" fill="#FF153C"/>
</svg>
