<svg width="22" height="22" viewBox="0 0 22 22" fill="none" xmlns="http://www.w3.org/2000/svg">
<path id="Vector" d="M9.53864 0.0272533C4.27876 0.0272533 0 4.30602 0 9.5659C0 14.8258 4.27876 19.1045 9.53864 19.1045C11.1466 19.1045 12.7273 18.723 14.0627 17.9872C14.1697 18.1159 14.2883 18.2345 14.417 18.3414L17.1423 21.0668C17.394 21.3499 17.7008 21.5787 18.0441 21.739C18.3873 21.8992 18.7597 21.9876 19.1384 21.9988C19.517 22.0099 19.894 21.9436 20.2461 21.8038C20.5981 21.664 20.9179 21.4537 21.1858 21.1858C21.4537 20.9179 21.664 20.5981 21.8038 20.2461C21.9436 19.894 22.0099 19.517 21.9988 19.1384C21.9876 18.7597 21.8992 18.3873 21.739 18.0441C21.5787 17.7008 21.3499 17.394 21.0668 17.1423L18.3415 14.417C18.2087 14.2842 18.0626 14.1654 17.9054 14.0627C18.6412 12.7273 19.1045 11.1738 19.1045 9.53864C19.1045 4.27876 14.8258 0 9.5659 0L9.53864 0.0272533ZM9.53864 2.75258C13.3268 2.75258 16.352 5.77769 16.352 9.5659C16.352 11.3646 15.6979 13.0271 14.5532 14.2535C14.526 14.2807 14.4987 14.308 14.4715 14.3352C14.3428 14.4422 14.2242 14.5608 14.1172 14.6895C12.918 15.7796 11.2829 16.4065 9.51139 16.4065C5.72319 16.4065 2.69807 13.3814 2.69807 9.59315C2.69807 5.80495 5.72319 2.77983 9.51139 2.77983L9.53864 2.75258Z" fill="#E9B25F"/>
</svg>
